<?xml version="1.0" encoding="utf-8"?>
<!-- Generator: Adobe Illustrator 27.2.0, SVG Export Plug-In . SVG Version: 6.00 Build 0)  -->
<svg version="1.1" id="Слой_1" xmlns="http://www.w3.org/2000/svg" xmlns:xlink="http://www.w3.org/1999/xlink" x="0px" y="0px" width="834.899" height="150"
	 viewBox="0 0 834.899 150" enable-background="new 0 0 834.899 150" xml:space="preserve">
<g>
	<path fill="#111827" d="M379.163,44.323l-3.959,12.095c12.048,4.902,20.542,16.733,20.542,30.553
		c0,18.223-14.772,32.995-32.995,32.995s-32.995-14.772-32.995-32.995c0-18.223,14.772-32.995,32.995-32.995
		c0.782,0,1.546,0.028,2.31,0.085l4.044-12.368c-2.074-0.292-4.195-0.443-6.354-0.443c-24.991,0-45.25,20.259-45.25,45.25
		s20.259,45.25,45.25,45.25S408,111.491,408,86.5C408,67.297,396.037,50.894,379.163,44.323z"/>
	<path display="none" fill="#111827" d="M375.468,54.037c1.586-4.345,3.033-8.31,4.597-12.595c1.782,0.713,3.386,1.252,4.902,1.976
		c17.793,8.495,29.069,28.113,26.943,46.819c-2.407,21.192-17.349,38.002-38.12,42.254c-19.211,3.932-35.757-1.215-48.72-16.134
		c-17.636-20.297-13.445-52.975,8.514-68.508c10.893-7.705,22.861-10.745,36.3-8.773c-1.341,4.395-2.608,8.546-3.814,12.497
		c-4.261,0.593-8.393,0.815-12.344,1.78c-15.993,3.904-26.552,17.893-25.971,34.055c0.57,15.846,12.559,29.254,28.439,32.255
		c18.48,3.492,39.715-8.306,41.905-30.748c1.298-13.304-5.894-26.441-18.4-32.794C378.388,55.455,377.061,54.82,375.468,54.037z"/>
	<path fill="#111827" d="M530.862,62.907c-11.102,5.583-21.614,10.869-32.238,16.211c-10.52-5.357-21.013-10.699-31.962-16.274
		c0,22.382,0,47.242,0,69.38c-4.582,0-8.862,0-13.36,0c0-29.37,0-61.682,0-91.713c15.392,7.957,30.308,15.669,45.464,23.504
		c14.994-7.677,30.063-15.393,45.53-23.312c0,29.814,0,62.104,0,91.599c-4.446,0-8.737,0-13.433,0
		C530.862,110.289,530.862,85.436,530.862,62.907z"/>
	<path fill="#111827" d="M195.611,110.61c4.466-1.501,8.556-2.876,12.845-4.317c3.355,8.439,10.354,11.226,18.297,12.266
		c7.316,0.958,14.701,1.099,21.839-1.136c2.673-0.837,5.42-2.109,7.549-3.882c5.389-4.489,4.657-12.6-1.49-15.914
		c-3.166-1.707-6.788-2.8-10.337-3.519c-7.974-1.614-16.065-2.653-24.04-4.267c-3.674-0.743-7.32-1.988-10.744-3.526
		c-7.747-3.481-12.246-9.491-12.693-18.135c-0.467-9.026,3.143-16.032,10.811-20.878c5.662-3.578,11.983-5.064,18.546-5.821
		c8.183-0.944,16.288-0.629,24.224,1.636c7.751,2.212,14.245,6.3,18.447,13.424c0.862,1.461,1.474,3.068,2.382,4.993
		c-4.377,1.452-8.457,2.806-12.733,4.225c-3.293-7.583-9.618-10.293-17.004-11.374c-7.834-1.147-15.591-0.979-23.071,1.838
		c-1.978,0.745-3.962,1.961-5.436,3.46c-4.618,4.695-3.554,11.819,2.353,14.723c3.134,1.54,6.676,2.425,10.132,3.1
		c7.988,1.561,16.073,2.631,24.043,4.272c3.664,0.754,7.308,2.051,10.682,3.681c7.818,3.778,12.444,9.981,12.833,18.882
		c0.407,9.305-3.495,16.405-11.297,21.396c-5.758,3.684-12.242,5.101-18.911,5.784c-10.045,1.029-19.946,0.44-29.506-3.134
		C204.923,125.243,198.998,119.572,195.611,110.61z"/>
	<path fill="#111827" d="M761.354,132.343c-4.79,0-9.451,0-14.754,0c14.788-29.412,29.348-61.442,44.4-91.378
		c14.782,29.754,29.25,61.803,43.899,91.289c-5.207,0-9.835,0-14.857,0C810.585,113.28,800.592,90.246,791,71"/>
	<path fill="#111827" d="M590.827,41c4.577,0,8.797,0,13.444,0c0,24.052,0,54.259,0,78.473c17.373,0,34.322,0,51.549,0
		c0,4.354,0,8.421,0,12.759c-21.545,0-43.161,0-64.994,0C590.827,103.947,590.827,69.481,590.827,41z"/>
	<path fill="#111827" d="M709.277,41.186c0,28.281,0,62.705,0,91.097c-4.371,0-8.564,0-13.049,0c0-28.203,0-62.441,0-91.097"/>
</g>
<g>
	<path fill="#0FA348" stroke="#0FA348" stroke-miterlimit="10" d="M94.79,64.81c-0.19,1.21-0.29,2.46-0.29,3.72V83.9
		c0,6.96-5.64,12.6-12.6,12.6H68.53c-1.74,0-3.43,0.19-5.07,0.55h-0.01c-5.92-2.21-10.69-6.8-13.14-12.6
		c0.13-0.98,0.19-1.97,0.19-2.98V65.1c0-6.96,5.64-12.6,12.6-12.6h14.37c1.51,0,2.98-0.14,4.41-0.41h0.01
		C87.74,54.37,92.43,59,94.79,64.81z"/>
	<path fill="#2563EB" stroke="#2563EB" stroke-miterlimit="10" d="M44.69,117.55c-0.13,0.98-0.19,1.97-0.19,2.98v16.37
		c0,6.96-5.64,12.6-12.6,12.6H13.1c-6.96,0-12.6-5.64-12.6-12.6v-18.8c0-6.96,5.64-12.6,12.6-12.6h13.37c1.74,0,3.43-0.19,5.07-0.55
		h0.01C37.47,107.16,42.24,111.75,44.69,117.55z"/>
	<linearGradient id="SVGID_1_" gradientUnits="userSpaceOnUse" x1="37.7712" y1="111.0016" x2="57.2288" y2="90.9984">
		<stop  offset="0.1031" style="stop-color:#2563EB"/>
		<stop  offset="0.7117" style="stop-color:#0FA348"/>
	</linearGradient>

		<linearGradient id="SVGID_00000085220716981042703750000006974193275266622081_" gradientUnits="userSpaceOnUse" x1="36.9716" y1="111.8235" x2="58.0284" y2="90.1765">
		<stop  offset="0.1031" style="stop-color:#2563EB"/>
		<stop  offset="0.7117" style="stop-color:#0FA348"/>
	</linearGradient>
	<path fill="url(#SVGID_1_)" stroke="url(#SVGID_00000085220716981042703750000006974193275266622081_)" stroke-miterlimit="10" d="
		M63.45,97.05c-9.89,2.12-17.51,10.32-18.76,20.5c-2.45-5.8-7.22-10.39-13.14-12.6c9.89-2.12,17.51-10.32,18.76-20.5
		C52.76,90.25,57.53,94.84,63.45,97.05z"/>

		<linearGradient id="SVGID_00000060740578673126024540000004859939448704578734_" gradientUnits="userSpaceOnUse" x1="88.3623" y1="58.782" x2="107.643" y2="38.223">
		<stop  offset="0.0196" style="stop-color:#0FA348"/>
		<stop  offset="0.0578" style="stop-color:#23A547"/>
		<stop  offset="0.2054" style="stop-color:#6DAC45"/>
		<stop  offset="0.3375" style="stop-color:#A7B143"/>
		<stop  offset="0.4496" style="stop-color:#D2B542"/>
		<stop  offset="0.5371" style="stop-color:#EBB741"/>
		<stop  offset="0.5894" style="stop-color:#F5B841"/>
	</linearGradient>

		<linearGradient id="SVGID_00000140737266737940867160000003778541195099516335_" gradientUnits="userSpaceOnUse" x1="87.5358" y1="59.6663" x2="108.4708" y2="37.3434">
		<stop  offset="0.0765" style="stop-color:#0FA348"/>
		<stop  offset="0.1109" style="stop-color:#23A547"/>
		<stop  offset="0.2438" style="stop-color:#6DAC45"/>
		<stop  offset="0.3627" style="stop-color:#A7B143"/>
		<stop  offset="0.4636" style="stop-color:#D2B542"/>
		<stop  offset="0.5424" style="stop-color:#EBB741"/>
		<stop  offset="0.5894" style="stop-color:#F5B841"/>
	</linearGradient>

		<path fill="url(#SVGID_00000060740578673126024540000004859939448704578734_)" stroke="url(#SVGID_00000140737266737940867160000003778541195099516335_)" stroke-miterlimit="10" d="
		M114.12,44.91c-9.97,1.84-17.77,9.84-19.33,19.9c-2.36-5.81-7.05-10.44-12.9-12.72c9.97-1.85,17.76-9.84,19.32-19.9
		C103.58,38.01,108.26,42.63,114.12,44.91z"/>
	<path fill="#F5B841" stroke="#F5B841" stroke-miterlimit="10" d="M145.5,13.1v18.8c0,6.96-5.64,12.6-12.6,12.6h-14.37
		c-1.51,0-2.98,0.14-4.41,0.41c-5.86-2.28-10.54-6.9-12.91-12.72c0.19-1.21,0.29-2.46,0.29-3.72V13.1c0-6.96,5.64-12.6,12.6-12.6
		h18.8C139.86,0.5,145.5,6.14,145.5,13.1z"/>
</g>
<g>
</g>
<g>
</g>
<g>
</g>
<g>
</g>
<g>
</g>
<g>
</g>
<g>
</g>
<g>
</g>
<g>
</g>
<g>
</g>
<g>
</g>
<g>
</g>
<g>
</g>
<g>
</g>
<g>
</g>
</svg>
