<?xml version="1.0" encoding="utf-8"?>
<!-- Generator: Adobe Illustrator 27.2.0, SVG Export Plug-In . SVG Version: 6.00 Build 0)  -->
<svg version="1.1" id="Слой_1" xmlns="http://www.w3.org/2000/svg" xmlns:xlink="http://www.w3.org/1999/xlink" x="0px" y="0px" width="244.488" height="190.735"
	 viewBox="0 0 244.488 190.735" enable-background="new 0 0 244.488 190.735" xml:space="preserve">
<g>
	<circle fill="#111827" cx="172.465" cy="179.5" r="2"/>
	<circle fill="#111827" cx="80.466" cy="179.5" r="2"/>
	<g id="УAловите_свое_00000134250229611721359180000014209204285866016441_">
		<path fill="#F5B841" d="M193.154,174.086h6.09v1.065h-4.83v3.074h4.08v1.065h-4.08v3.569h4.979v1.065h-6.239V174.086z"/>
		<path fill="#F5B841" d="M208.124,174.086h1.439l3.315,9.84h-1.351l-1.694-5.49c-0.345-1.095-0.675-2.175-0.976-3.314h-0.06
			c-0.315,1.14-0.63,2.22-0.975,3.314l-1.726,5.49h-1.29L208.124,174.086z M206.564,179.921h4.516v1.02h-4.516V179.921z"/>
		<path fill="#F5B841" d="M218.729,174.086h3.075c1.995,0,3.45,0.721,3.45,2.775c0,1.965-1.455,2.909-3.45,2.909h-1.8v4.155h-1.275
			V174.086z M221.624,178.751c1.529,0,2.369-0.63,2.369-1.89c0-1.29-0.84-1.755-2.369-1.755h-1.62v3.645H221.624z M222.539,178.765
			l2.999,5.16h-1.425l-2.564-4.5L222.539,178.765z"/>
		<path fill="#F5B841" d="M231.374,174.086h1.38l3.149,6.18l0.945,2.04h0.03c-0.045-0.975-0.165-2.085-0.165-3.12v-5.1h1.199v9.84
			h-1.38l-3.149-6.18l-0.945-2.04h-0.029c0.045,1.005,0.164,2.055,0.164,3.075v5.145h-1.199V174.086z"/>
	</g>
	<g>
		<path fill="#0FA348" d="M101.224,174.086h1.44l3.315,9.84h-1.35l-1.695-5.49c-0.345-1.095-0.675-2.175-0.975-3.314h-0.06
			c-0.315,1.14-0.63,2.22-0.975,3.314l-1.725,5.49h-1.29L101.224,174.086z M99.664,179.921h4.515v1.02h-4.515V179.921z"/>
		<path fill="#0FA348" d="M111.874,174.086h2.97c2.175,0,3.645,0.735,3.645,2.896c0,2.085-1.485,3.045-3.645,3.045h-1.71v3.899
			h-1.26V174.086z M114.694,179.006c1.71,0,2.535-0.63,2.535-2.024c0-1.41-0.84-1.875-2.535-1.875h-1.56v3.899H114.694z"/>
		<path fill="#0FA348" d="M124.774,174.086h2.97c2.175,0,3.645,0.735,3.645,2.896c0,2.085-1.485,3.045-3.645,3.045h-1.71v3.899
			h-1.26V174.086z M127.593,179.006c1.71,0,2.535-0.63,2.535-2.024c0-1.41-0.84-1.875-2.535-1.875h-1.56v3.899H127.593z"/>
		<path fill="#0FA348" d="M137.153,174.086h1.245v8.774h4.86v1.065h-6.105V174.086z"/>
		<path fill="#0FA348" d="M149.913,180.416l-3.3-6.33h1.335l1.47,2.91c0.375,0.765,0.72,1.515,1.125,2.295h0.06
			c0.39-0.78,0.78-1.53,1.155-2.295l1.425-2.91h1.29l-3.3,6.33v3.51h-1.26V180.416z"/>
	</g>
	<g id="УAловите_свое">
		<path fill="#2563EB" d="M3.454,174.086h1.245v8.774h4.86v1.065H3.454V174.086z"/>
		<path fill="#2563EB" d="M16.054,174.086h6.09v1.065h-4.83v3.074h4.08v1.065h-4.08v3.569h4.98v1.065h-6.24V174.086z"/>
		<path fill="#2563EB" d="M31.024,174.086h1.44l3.315,9.84h-1.35l-1.695-5.49c-0.345-1.095-0.675-2.175-0.975-3.314h-0.06
			c-0.315,1.14-0.63,2.22-0.975,3.314l-1.725,5.49h-1.29L31.024,174.086z M29.464,179.921h4.515v1.02h-4.515V179.921z"/>
		<path fill="#2563EB" d="M41.629,174.086h3.075c1.995,0,3.45,0.721,3.45,2.775c0,1.965-1.455,2.909-3.45,2.909h-1.8v4.155h-1.275
			V174.086z M44.524,178.751c1.53,0,2.37-0.63,2.37-1.89c0-1.29-0.84-1.755-2.37-1.755h-1.62v3.645H44.524z M45.439,178.765l3,5.16
			h-1.425l-2.565-4.5L45.439,178.765z"/>
		<path fill="#2563EB" d="M54.274,174.086h1.38l3.15,6.18l0.945,2.04h0.03c-0.045-0.975-0.165-2.085-0.165-3.12v-5.1h1.2v9.84h-1.38
			l-3.15-6.18l-0.945-2.04h-0.03c0.045,1.005,0.165,2.055,0.165,3.075v5.145h-1.2V174.086z"/>
	</g>
</g>
<g>
	<path fill="#111827" d="M70.197,121.056l-1.514,4.626c4.608,1.875,7.856,6.399,7.856,11.685c0,6.969-5.649,12.618-12.618,12.618
		s-12.618-5.649-12.618-12.618c0-6.969,5.649-12.618,12.618-12.618c0.299,0,0.591,0.011,0.883,0.032l1.547-4.73
		c-0.793-0.112-1.604-0.169-2.43-0.169c-9.558,0-17.305,7.748-17.305,17.305s7.748,17.305,17.305,17.305s17.305-7.748,17.305-17.305
		C81.226,129.843,76.65,123.569,70.197,121.056z"/>
	<path display="none" fill="#111827" d="M68.784,124.771c0.606-1.662,1.16-3.178,1.758-4.817c0.681,0.272,1.295,0.479,1.875,0.756
		c6.805,3.249,11.117,10.751,10.304,17.905c-0.921,8.105-6.635,14.534-14.579,16.16c-7.347,1.504-13.675-0.465-18.632-6.17
		c-6.745-7.762-5.142-20.26,3.256-26.2c4.166-2.947,8.743-4.109,13.882-3.355c-0.513,1.681-0.997,3.268-1.459,4.779
		c-1.63,0.227-3.21,0.312-4.721,0.681c-6.116,1.493-10.155,6.843-9.932,13.024c0.218,6.06,4.803,11.188,10.876,12.335
		c7.068,1.335,15.189-3.176,16.026-11.759c0.496-5.088-2.254-10.112-7.037-12.542C69.901,125.314,69.393,125.071,68.784,124.771z"/>
	<path fill="#111827" d="M128.213,128.164c-4.246,2.135-8.266,4.157-12.329,6.2c-4.023-2.049-8.036-4.092-12.223-6.224
		c0,8.56,0,18.067,0,26.534c-1.752,0-3.389,0-5.11,0c0-11.232,0-23.589,0-35.074c5.886,3.043,11.591,5.992,17.387,8.989
		c5.734-2.936,11.497-5.887,17.412-8.915c0,11.402,0,23.751,0,35.031c-1.7,0-3.341,0-5.137,0
		C128.213,146.284,128.213,136.78,128.213,128.164z"/>
	<path fill="#111827" d="M0,146.407c1.708-0.574,3.272-1.1,4.913-1.651c1.283,3.227,3.96,4.293,6.998,4.691
		c2.798,0.366,5.622,0.42,8.352-0.434c1.022-0.32,2.073-0.806,2.887-1.485c2.061-1.717,1.781-4.819-0.57-6.086
		c-1.211-0.653-2.596-1.071-3.953-1.346c-3.05-0.617-6.144-1.015-9.194-1.632c-1.405-0.284-2.799-0.76-4.109-1.349
		c-2.963-1.331-4.683-3.63-4.854-6.935c-0.179-3.452,1.202-6.131,4.134-7.985c2.165-1.368,4.583-1.937,7.093-2.226
		c3.129-0.361,6.229-0.24,9.264,0.626c2.964,0.846,5.448,2.409,7.055,5.134c0.329,0.559,0.564,1.173,0.911,1.909
		c-1.674,0.555-3.234,1.073-4.87,1.616c-1.259-2.9-3.678-3.937-6.503-4.35c-2.996-0.438-5.962-0.374-8.823,0.703
		c-0.756,0.285-1.515,0.75-2.079,1.323c-1.766,1.795-1.359,4.52,0.9,5.631c1.198,0.589,2.553,0.927,3.875,1.186
		c3.055,0.597,6.147,1.006,9.195,1.634c1.401,0.289,2.795,0.785,4.085,1.408c2.99,1.445,4.759,3.817,4.908,7.221
		c0.156,3.559-1.337,6.274-4.32,8.183c-2.202,1.409-4.682,1.951-7.232,2.212c-3.841,0.393-7.628,0.168-11.284-1.198
		C3.561,152.003,1.295,149.834,0,146.407z"/>
	<path fill="#111827" d="M216.361,154.719c-1.832,0-3.614,0-5.643,0c5.656-11.248,11.224-23.498,16.98-34.946
		c5.653,11.379,11.186,23.636,16.789,34.912c-1.991,0-3.761,0-5.682,0c-3.617-7.256-7.438-16.066-11.107-23.426"/>
	<path fill="#111827" d="M151.145,119.786c1.75,0,3.364,0,5.142,0c0,9.198,0,20.751,0,30.011c6.644,0,13.126,0,19.714,0
		c0,1.665,0,3.22,0,4.88c-8.24,0-16.507,0-24.856,0C151.145,143.859,151.145,130.678,151.145,119.786z"/>
	<path fill="#111827" d="M196.445,119.857c0,10.816,0,23.981,0,34.839c-1.672,0-3.275,0-4.99,0c0-10.786,0-23.88,0-34.839"/>
</g>
<g>
	<path fill="#0FA348" stroke="#0FA348" stroke-miterlimit="10" d="M136.027,41.179c-0.12,0.765-0.183,1.556-0.183,2.353v9.722
		c0,4.403-3.568,7.97-7.97,7.97h-8.457c-1.101,0-2.17,0.12-3.207,0.348h-0.006c-3.745-1.398-6.762-4.301-8.312-7.97
		c0.082-0.62,0.12-1.246,0.12-1.885V41.363c0-4.403,3.568-7.97,7.97-7.97h9.09c0.955,0,1.885-0.089,2.79-0.259h0.006
		C131.568,34.575,134.534,37.504,136.027,41.179z"/>
	<path fill="#2563EB" stroke="#2563EB" stroke-miterlimit="10" d="M104.336,74.54c-0.082,0.62-0.12,1.246-0.12,1.885V86.78
		c0,4.403-3.568,7.97-7.97,7.97H84.354c-4.403,0-7.97-3.568-7.97-7.97V74.888c0-4.403,3.568-7.97,7.97-7.97h8.457
		c1.101,0,2.17-0.12,3.207-0.348h0.006C99.769,67.968,102.787,70.871,104.336,74.54z"/>
	<linearGradient id="SVGID_1_" gradientUnits="userSpaceOnUse" x1="99.9598" y1="70.3978" x2="112.2678" y2="57.7448">
		<stop  offset="0.1031" style="stop-color:#2563EB"/>
		<stop  offset="0.7117" style="stop-color:#0FA348"/>
	</linearGradient>
	
		<linearGradient id="SVGID_00000042007219910968423050000007508385036546392456_" gradientUnits="userSpaceOnUse" x1="99.1603" y1="71.2197" x2="113.0673" y2="56.9229">
		<stop  offset="0.1031" style="stop-color:#2563EB"/>
		<stop  offset="0.7117" style="stop-color:#0FA348"/>
	</linearGradient>
	<path fill="url(#SVGID_1_)" stroke="url(#SVGID_00000042007219910968423050000007508385036546392456_)" stroke-miterlimit="10" d="
		M116.203,61.573c-6.256,1.341-11.076,6.528-11.867,12.967c-1.55-3.669-4.567-6.572-8.312-7.97
		c6.256-1.341,11.076-6.528,11.867-12.967C109.441,57.271,112.458,60.175,116.203,61.573z"/>
	
		<linearGradient id="SVGID_00000065790045149745292720000008863285091964189358_" gradientUnits="userSpaceOnUse" x1="131.9613" y1="37.3663" x2="144.1573" y2="24.3617">
		<stop  offset="0.0196" style="stop-color:#0FA348"/>
		<stop  offset="0.0578" style="stop-color:#23A547"/>
		<stop  offset="0.2054" style="stop-color:#6DAC45"/>
		<stop  offset="0.3375" style="stop-color:#A7B143"/>
		<stop  offset="0.4496" style="stop-color:#D2B542"/>
		<stop  offset="0.5371" style="stop-color:#EBB741"/>
		<stop  offset="0.5894" style="stop-color:#F5B841"/>
	</linearGradient>
	
		<linearGradient id="SVGID_00000024691978347797686120000016730899076397774471_" gradientUnits="userSpaceOnUse" x1="131.1348" y1="38.2506" x2="144.9851" y2="23.4821">
		<stop  offset="0.0765" style="stop-color:#0FA348"/>
		<stop  offset="0.1109" style="stop-color:#23A547"/>
		<stop  offset="0.2438" style="stop-color:#6DAC45"/>
		<stop  offset="0.3627" style="stop-color:#A7B143"/>
		<stop  offset="0.4636" style="stop-color:#D2B542"/>
		<stop  offset="0.5424" style="stop-color:#EBB741"/>
		<stop  offset="0.5894" style="stop-color:#F5B841"/>
	</linearGradient>
	
		<path fill="url(#SVGID_00000065790045149745292720000008863285091964189358_)" stroke="url(#SVGID_00000024691978347797686120000016730899076397774471_)" stroke-miterlimit="10" d="
		M148.254,28.592c-6.307,1.164-11.24,6.224-12.227,12.588c-1.493-3.675-4.459-6.604-8.16-8.046
		c6.307-1.17,11.234-6.224,12.221-12.588C141.587,24.227,144.548,27.149,148.254,28.592z"/>
	<path fill="#F5B841" stroke="#F5B841" stroke-miterlimit="10" d="M168.104,8.47v11.892c0,4.403-3.568,7.97-7.97,7.97h-9.09
		c-0.955,0-1.885,0.089-2.79,0.259c-3.707-1.442-6.667-4.365-8.166-8.046c0.12-0.765,0.183-1.556,0.183-2.353V8.47
		c0-4.403,3.568-7.97,7.97-7.97h11.892C164.536,0.5,168.104,4.068,168.104,8.47z"/>
</g>
<g>
</g>
<g>
</g>
<g>
</g>
<g>
</g>
<g>
</g>
<g>
</g>
<g>
</g>
<g>
</g>
<g>
</g>
<g>
</g>
<g>
</g>
<g>
</g>
<g>
</g>
<g>
</g>
<g>
</g>
</svg>
